<?xml version="1.0" encoding="utf-8"?>
<!-- Generator: Adobe Illustrator 21.1.0, SVG Export Plug-In . SVG Version: 6.00 Build 0)  -->
<svg version="1.1" id="Layer_1" xmlns="http://www.w3.org/2000/svg" xmlns:xlink="http://www.w3.org/1999/xlink" x="0px" y="0px"
	 viewBox="0 0 1024 1024" style="enable-background:new 0 0 1024 1024;" xml:space="preserve">
<style type="text/css">
	.st0{fill:#444444;}
</style>
<title></title>
<g id="icomoon-ignore">
</g>
<path class="st0" d="M967.5,0h-911C25.3,0,0,25.3,0,56.5v911c0,31.2,25.3,56.5,56.5,56.5h490.4V627.5H413.4V473h133.5V358.8
	c0-132.2,80.8-204.2,198.8-204.2c56.5,0,105.1,4.1,119.2,6v138.2H783c-64,0-76.5,30.7-76.5,75.5V473h153l-19.8,154.9H706.6V1024
	h260.9c31.2,0,56.5-25.3,56.5-56.5v-911C1024,25.3,998.7,0,967.5,0L967.5,0z"/>
</svg>
