<?xml version="1.0" encoding="utf-8"?>
<!-- Generator: Adobe Illustrator 21.1.0, SVG Export Plug-In . SVG Version: 6.00 Build 0)  -->
<svg version="1.1" id="Layer_1" xmlns="http://www.w3.org/2000/svg" xmlns:xlink="http://www.w3.org/1999/xlink" x="0px" y="0px"
	 viewBox="0 0 1024 1024" style="enable-background:new 0 0 1024 1024;" xml:space="preserve">
<style type="text/css">
	.st0{fill:#444444;}
</style>
<title></title>
<g id="icomoon-ignore">
</g>
<path class="st0" d="M872.4,872.6H720.8V635c0-56.7-1.2-129.6-79-129.6c-79,0-91.1,61.7-91.1,125.4v241.8H399V384h145.7v66.6h1.9
	c20.4-38.4,69.9-78.9,143.8-78.9c153.6,0,182.1,101.1,182.1,232.8v268V872.6z M227.7,317.1c-48.8,0-88.1-39.5-88.1-88.1
	c0-48.5,39.3-88,88.1-88c48.6,0,88.1,39.5,88.1,88C315.8,277.6,276.3,317.1,227.7,317.1z M303.7,872.6H151.7V384h152.1V872.6z
	 M948.2,0H75.5C33.8,0,0,33,0,73.8v876.4C0,991,33.8,1024,75.5,1024h872.6c41.7,0,75.8-33,75.8-73.8V73.8C1024,33,989.9,0,948.2,0
	L948.2,0z"/>
</svg>
