<?xml version="1.0" encoding="utf-8"?>
<!-- Generator: Adobe Illustrator 21.1.0, SVG Export Plug-In . SVG Version: 6.00 Build 0)  -->
<svg version="1.1" id="Layer_1" xmlns="http://www.w3.org/2000/svg" xmlns:xlink="http://www.w3.org/1999/xlink" x="0px" y="0px"
	 viewBox="0 0 1024 1024" style="enable-background:new 0 0 1024 1024;" xml:space="preserve">
<style type="text/css">
	.st0{fill:#444444;}
</style>
<title></title>
<g id="icomoon-ignore">
</g>
<path class="st0" d="M511.1,0C242.2,0,21.8,207.4,0.9,470.9l274.4,113.4c23.2-15.8,51.3-25.2,81.5-25.2c2.7,0,5.4,0.1,8.1,0.3
	L487,382.7v-2.6c0-106.4,86.5-193,193-193c106.4,0,193.1,86.7,193.1,193.2s-86.7,193.1-193.1,193.1h-4.5l-174,124.2
	c0,2.2,0.2,4.5,0.2,6.8c0,80-64.6,144.9-144.6,144.9c-69.8,0-128.6-50-142.1-116.4L18.6,651.5C79.4,866.4,276.7,1024,511,1024
	c282.8,0,512-229.2,512-512S793.8,0,511.1,0L511.1,0z M321.7,777l-62.8-26c11.2,23.2,30.5,42.6,56.1,53.3
	c55.4,23,119.2-3.2,142.2-58.6c11.2-26.9,11.3-56.3,0.2-83.2s-32-47.8-58.8-59c-26.6-11.1-55-10.6-80.1-1.3l65,26.9
	c40.8,17.1,60.2,64,43.1,104.8C409.5,774.6,362.6,793.9,321.7,777L321.7,777z M808.7,380c0-70.9-57.7-128.6-128.6-128.6
	c-71,0-128.6,57.7-128.6,128.6c0,71,57.6,128.6,128.6,128.6C751,508.7,808.7,451.1,808.7,380L808.7,380z M583.7,379.8
	c0-53.4,43.2-96.6,96.6-96.6c53.3,0,96.6,43.2,96.6,96.6c0,53.4-43.3,96.6-96.6,96.6C626.9,476.5,583.7,433.2,583.7,379.8
	L583.7,379.8z"/>
</svg>
