<?xml version="1.0" encoding="utf-8"?>
<!-- Generator: Adobe Illustrator 21.1.0, SVG Export Plug-In . SVG Version: 6.00 Build 0)  -->
<svg version="1.1" id="Layer_1" xmlns="http://www.w3.org/2000/svg" xmlns:xlink="http://www.w3.org/1999/xlink" x="0px" y="0px"
	 viewBox="0 0 1024 1024" style="enable-background:new 0 0 1024 1024;" xml:space="preserve">
<style type="text/css">
	.st0{fill:#444444;}
</style>
<title></title>
<g id="icomoon-ignore">
</g>
<path class="st0" d="M872.3,186.9c-33.9-19.2-88.1,11.6-121,68.9l-59.6,103.7c-21.8,43.1-18.8,94.4,8.8,134l1.7,2.6
	c27.5,39.6,64.6,76.2,76.8,89.2c7.3,7.7,12.8,17.2,15.8,28c10,36.5-10.9,73.6-46.9,83.8c-36,10.2-73.3-10.9-83.4-46.7
	c-2.6-9-3.1-17.9-1.9-26.9c1.9-14.7-2.9-39-24.2-62.7s-64.9,21.1-79,67.8l-0.6,2.6c-14.1,46.1-23,86.4-20.4,90.2
	c1.6,2.6,3.1,5.1,4.5,7.7c19.7,37.1,5.6,83.2-31.6,103c-37.1,19.8-83.4,5.8-103-31.4c-19.8-37.1-5.8-83.2,31.5-103l5.1-2.6
	c2.8-1.3,10.9-20.5,17.8-43.5l12.7-41.6c0.8-1.9,1.4-4.5,1.9-7l37.8-134.4l-40.3,82.6c-4.7-15.4-12.7-16-29.9-3.8
	c-10.2,7.7-27.5,22.4-35.8,28.2c-15.4,11.5-28.8,33.3-35.8,46.7c-3.8,8.3-9.6,15.4-17.3,21.1c-28.8,23.7-71,19.2-94.1-9.6
	s-18.6-71,10.2-94.1c9-7,18.6-11.5,28.2-13.4c17.3-3.8,74.9-39,109.4-64c6.4-4.5,11.5-8.3,16-12.8l92.8-70.4l-80.6,43.5
	c0,0-8.3-0.6-17.9,0.6c-29.4,3.2-60.2,7.7-65.9,14.7c-3.2,4.5-7,8.3-12.2,11.5c-26.9,19.2-64,13.4-83.8-13.4
	c-19.2-26.9-12.8-64.6,14.1-83.8c10.9-7.7,24.3-11.5,36.5-11.5c21.8,0.6,78.7,12.2,126.1,3.8l12.2-1.9c48-8.3,104.3-49.9,127.4-92.2
	l49.9-87c27.5-48,25.6-100.5-4.5-117.8l-55.7-32c-27.5-15.4-72.3-15.4-99.2,0L91.5,222.7C63.4,237.4,41,275.8,41,307.2v410.5
	c0,31.4,22.4,69.8,49.7,85.1l372.8,209.9c27.5,15.4,72.3,15.4,99.2,0l371.8-209.9c27.5-15.5,49.9-53.8,49.9-85.1V306.6
	c0-31.4-22.4-69.6-49.3-85.1l-61.4-34.7L872.3,186.9z"/>
</svg>
